<svg class="main-svg" xmlns="http://www.w3.org/2000/svg" xmlns:xlink="http://www.w3.org/1999/xlink" width="700" height="500" viewBox="0 0 700 500"><rect x="0" y="0" width="700" height="500" style="fill: rgb(255, 255, 255); fill-opacity: 1;"/><defs id="defs-308aa7"><g class="clips"/><g class="gradients"/></defs><g class="bglayer"/><g class="layer-below"><g class="imagelayer"/><g class="shapelayer"/></g><g class="cartesianlayer"/><g class="polarlayer"/><g class="ternarylayer"/><g class="geolayer"/><g class="funnelarealayer"/><g class="pielayer"/><g class="treemaplayer"/><g class="sunburstlayer"><g class="trace sunburst" stroke-linejoin="round" style="opacity: 1;"><g class="slice cursor-pointer"><path class="surface" d="M350,240L395,240A45,45 0,1,0 354.5043061230844,284.7740016789827L350,240A0,0 0,1,1 350,240Z" style="pointer-events: all; stroke-width: 1; fill: rgb(171, 99, 250); fill-opacity: 1; stroke: rgb(255, 255, 255); stroke-opacity: 1;"/><g class="slicetext"><text data-notex="1" class="slicetext" text-anchor="middle" x="0" y="0" style="font-family: 'Open Sans', verdana, arial, sans-serif; font-size: 12px; fill: rgb(68, 68, 68); fill-opacity: 1; white-space: pre;" transform="translate(344.7538806228563,234.62306468070733)scale(0.937597261621615)rotate(-47.87234042553189)">spatio-temporal</text></g></g><g class="slice cursor-pointer"><path class="surface" d="M350,240L354.5043061230844,284.7740016789827A45,45 0,0,0 395,240L350,240A0,0 0,0,1 350,240Z" style="pointer-events: all; stroke-width: 1; fill: rgb(99, 110, 250); fill-opacity: 1; stroke: rgb(255, 255, 255); stroke-opacity: 1;"/><g class="slicetext"><text data-notex="1" class="slicetext" text-anchor="middle" x="0" y="0" style="font-family: 'Open Sans', verdana, arial, sans-serif; font-size: 12px; fill: rgb(255, 255, 255); fill-opacity: 1; white-space: pre;" transform="translate(376.6265214891677,263.58884390697256)scale(0.7435139621595234)rotate(-47.87234042553189)">temporal</text></g></g><g class="slice cursor-pointer"><path class="surface" d="M395,240L440,240A90,90 0,0,0 306.7476420331985,161.07450646139955L328.3738210165992,200.53725323069978A45,45 0,0,1 395,240Z" style="pointer-events: all; stroke-width: 1; fill: rgb(99, 110, 250); fill-opacity: 1; stroke: rgb(255, 255, 255); stroke-opacity: 1;"/><g class="slicetext"><text data-notex="1" class="slicetext" text-anchor="middle" x="0" y="0" style="font-family: 'Open Sans', verdana, arial, sans-serif; font-size: 12px; fill: rgb(255, 255, 255); fill-opacity: 1; white-space: pre;" transform="translate(384.19599837495446,186.4228933999406)">TS</text></g></g><g class="slice cursor-pointer"><path class="surface" d="M328.3738210165992,200.53725323069978L306.7476420331985,161.07450646139955A90,90 0,0,0 291.89349335970775,308.7286976892599L320.9467466798539,274.36434884462994A45,45 0,0,1 328.3738210165992,200.53725323069978Z" style="pointer-events: all; stroke-width: 1; fill: rgb(0, 204, 150); fill-opacity: 1; stroke: rgb(255, 255, 255); stroke-opacity: 1;"/><g class="slicetext"><text data-notex="1" class="slicetext" text-anchor="middle" x="0" y="0" style="font-family: 'Open Sans', verdana, arial, sans-serif; font-size: 12px; fill: rgb(68, 68, 68); fill-opacity: 1; white-space: pre;" transform="translate(283.010872481526,237.74354081537336)">graph</text></g></g><g class="slice cursor-pointer"><path class="surface" d="M320.9467466798539,274.36434884462994L291.89349335970775,308.7286976892599A90,90 0,0,0 359.00861224616887,329.54800335796534L354.5043061230844,284.7740016789827A45,45 0,0,1 320.9467466798539,274.36434884462994Z" style="pointer-events: all; stroke-width: 1; fill: rgb(239, 85, 59); fill-opacity: 1; stroke: rgb(255, 255, 255); stroke-opacity: 1;"/><g class="slicetext"><text data-notex="1" class="slicetext" text-anchor="middle" x="0" y="0" style="font-family: 'Open Sans', verdana, arial, sans-serif; font-size: 12px; fill: rgb(68, 68, 68); fill-opacity: 1; white-space: pre;" transform="translate(329.8607732902197,308.96941856146657)">image</text></g></g><g class="slice cursor-pointer"><path class="surface" d="M354.5043061230844,284.7740016789827L359.00861224616887,329.54800335796534A90,90 0,0,0 440,240.00000000000003L395,240A45,45 0,0,1 354.5043061230844,284.7740016789827Z" style="pointer-events: all; stroke-width: 1; fill: rgb(99, 110, 250); fill-opacity: 1; stroke: rgb(255, 255, 255); stroke-opacity: 1;"/><g class="slicetext"><text data-notex="1" class="slicetext" text-anchor="middle" x="0" y="0" style="font-family: 'Open Sans', verdana, arial, sans-serif; font-size: 12px; fill: rgb(255, 255, 255); fill-opacity: 1; white-space: pre;" transform="translate(399.8583921312371,289.7779692843976)">TS</text></g></g><g class="slice cursor-pointer"><path class="surface" d="M440,240L485,240A135,135 0,0,0 389.9972034195606,111.06116287706683L376.66480227970703,154.04077525137788A90,90 0,0,1 440,240Z" style="pointer-events: all; stroke-width: 1; fill: rgb(99, 110, 250); fill-opacity: 1; stroke: rgb(255, 255, 255); stroke-opacity: 1;"/><g class="slicetext"><text data-notex="1" class="slicetext" text-anchor="middle" x="0" y="0" style="font-family: 'Open Sans', verdana, arial, sans-serif; font-size: 12px; fill: rgb(255, 255, 255); fill-opacity: 1; white-space: pre;" transform="translate(432.7710563719262,177.94640740193756)rotate(53.61702127659578)">network</text></g></g><g class="slice cursor-pointer"><path class="surface" d="M376.66480227970703,154.04077525137788L389.9972034195606,111.06116287706683A135,135 0,0,0 285.1214630497977,121.61175969209933L306.7476420331985,161.07450646139955A90,90 0,0,1 376.66480227970703,154.04077525137788Z" style="pointer-events: all; stroke-width: 1; fill: rgb(99, 110, 250); fill-opacity: 1; stroke: rgb(255, 255, 255); stroke-opacity: 1;"/><g class="slicetext"><text data-notex="1" class="slicetext" text-anchor="middle" x="0" y="0" style="font-family: 'Open Sans', verdana, arial, sans-serif; font-size: 12px; fill: rgb(255, 255, 255); fill-opacity: 1; white-space: pre;" transform="translate(338.34860969228896,132.5649958025433)">point</text></g></g><g class="slice cursor-pointer"><path class="surface" d="M306.7476420331985,161.07450646139955L285.1214630497977,121.61175969209933A135,135 0,0,0 262.84024003956165,343.09304653388983L291.89349335970775,308.7286976892599A90,90 0,0,1 306.7476420331985,161.07450646139955Z" style="pointer-events: all; stroke-width: 1; fill: rgb(0, 204, 150); fill-opacity: 1; stroke: rgb(255, 255, 255); stroke-opacity: 1;"/><g class="slicetext"><text data-notex="1" class="slicetext" text-anchor="middle" x="0" y="0" style="font-family: 'Open Sans', verdana, arial, sans-serif; font-size: 12px; fill: rgb(68, 68, 68); fill-opacity: 1; white-space: pre;" transform="translate(246.98806938999454,230.50061690159254)rotate(-84.25531914893611)">network</text></g></g><g class="slice cursor-pointer"><path class="surface" d="M291.89349335970775,308.7286976892599L262.84024003956165,343.09304653388983A135,135 0,0,0 354.51102189603614,374.92461110358437L353.00734793069074,329.9497407357229A90,90 0,0,1 291.89349335970775,308.7286976892599Z" style="pointer-events: all; stroke-width: 1; fill: rgb(239, 85, 59); fill-opacity: 1; stroke: rgb(255, 255, 255); stroke-opacity: 1;"/><g class="slicetext"><text data-notex="1" class="slicetext" text-anchor="middle" x="0" y="0" style="font-family: 'Open Sans', verdana, arial, sans-serif; font-size: 12px; fill: rgb(68, 68, 68); fill-opacity: 1; white-space: pre;" transform="translate(309.83412712446386,353.05266279883284)rotate(19.148936170212778)">network</text></g></g><g class="slice cursor-pointer"><path class="surface" d="M353.00734793069074,329.9497407357229L354.51102189603614,374.92461110358437A135,135 0,0,0 363.51291836925327,374.32200503694804L359.00861224616887,329.54800335796534A90,90 0,0,1 353.00734793069074,329.9497407357229Z" style="pointer-events: all; stroke-width: 1; fill: rgb(239, 85, 59); fill-opacity: 1; stroke: rgb(255, 255, 255); stroke-opacity: 1;"/><g class="slicetext"><text data-notex="1" class="slicetext" text-anchor="middle" x="0" y="0" style="font-family: 'Open Sans', verdana, arial, sans-serif; font-size: 12px; fill: rgb(68, 68, 68); fill-opacity: 1; white-space: pre;" transform="translate(358.5182298189454,368.41734330427215)rotate(-3.8297872340425556)">-</text></g></g><g class="slice cursor-pointer"><path class="surface" d="M359.00861224616887,329.54800335796534L363.51291836925327,374.32200503694804A135,135 0,0,0 485,240.00000000000003L440,240.00000000000003A90,90 0,0,1 359.00861224616887,329.54800335796534Z" style="pointer-events: all; stroke-width: 1; fill: rgb(99, 110, 250); fill-opacity: 1; stroke: rgb(255, 255, 255); stroke-opacity: 1;"/><g class="slicetext"><text data-notex="1" class="slicetext" text-anchor="middle" x="0" y="0" style="font-family: 'Open Sans', verdana, arial, sans-serif; font-size: 12px; fill: rgb(255, 255, 255); fill-opacity: 1; white-space: pre;" transform="translate(433.0452368853952,319.9632821406626)">point</text></g></g><g class="slice"><path class="surface" d="M485,240L530,240A180,180 0,0,0 425.76825723710033,76.72363552781869L406.8261929278252,117.54272664586401A135,135 0,0,1 485,240Z" style="pointer-events: all; stroke-width: 1; fill: rgb(99, 110, 250); fill-opacity: 1; stroke: rgb(255, 255, 255); stroke-opacity: 1; opacity: 0.7;"/><g class="slicetext"><text data-notex="1" class="slicetext" text-anchor="middle" x="0" y="0" style="font-family: 'Open Sans', verdana, arial, sans-serif; font-size: 12px; fill: rgb(255, 255, 255); fill-opacity: 1; white-space: pre;" transform="translate(474.5959701836312,160.6740794779231)rotate(57.446808510638334)">single-step</text></g></g><g class="slice"><path class="surface" d="M406.8261929278252,117.54272664586401L425.76825723710033,76.72363552781869A180,180 0,0,0 403.3296045594141,68.08155050275576L389.9972034195606,111.06116287706683A135,135 0,0,1 406.8261929278252,117.54272664586401Z" style="pointer-events: all; stroke-width: 1; fill: rgb(99, 110, 250); fill-opacity: 1; stroke: rgb(255, 255, 255); stroke-opacity: 1; opacity: 0.7;"/><g class="slicetext"><text data-notex="1" class="slicetext" text-anchor="middle" x="0" y="0" style="font-family: 'Open Sans', verdana, arial, sans-serif; font-size: 12px; fill: rgb(255, 255, 255); fill-opacity: 1; white-space: pre;" transform="translate(409.6706025356518,94.535717660406)scale(0.756101242746566)rotate(-68.936170212766)">multi-step</text></g></g><g class="slice"><path class="surface" d="M389.9972034195606,111.06116287706683L403.3296045594141,68.08155050275576A180,180 0,0,0 263.49528406639695,82.1490129227991L285.1214630497977,121.61175969209933A135,135 0,0,1 389.9972034195606,111.06116287706683Z" style="pointer-events: all; stroke-width: 1; fill: rgb(99, 110, 250); fill-opacity: 1; stroke: rgb(255, 255, 255); stroke-opacity: 1; opacity: 0.7;"/><g class="slicetext"><text data-notex="1" class="slicetext" text-anchor="middle" x="0" y="0" style="font-family: 'Open Sans', verdana, arial, sans-serif; font-size: 12px; fill: rgb(255, 255, 255); fill-opacity: 1; white-space: pre;" transform="translate(335.1688281148413,90.7790469784686)rotate(-5.744680851063777)">single-step</text></g></g><g class="slice"><path class="surface" d="M285.1214630497977,121.61175969209933L263.49528406639695,82.1490129227991A180,180 0,0,0 173.60689309341436,275.85347731869047L217.70516982006077,266.89010798901785A135,135 0,0,1 285.1214630497977,121.61175969209933Z" style="pointer-events: all; stroke-width: 1; fill: rgb(0, 204, 150); fill-opacity: 1; stroke: rgb(255, 255, 255); stroke-opacity: 1; opacity: 0.7;"/><g class="slicetext"><text data-notex="1" class="slicetext" text-anchor="middle" x="0" y="0" style="font-family: 'Open Sans', verdana, arial, sans-serif; font-size: 12px; fill: rgb(68, 68, 68); fill-opacity: 1; white-space: pre;" transform="translate(216.09390183783663,177.66289766390938)rotate(-65.10638297872345)">single-step</text></g></g><g class="slice"><path class="surface" d="M217.70516982006077,266.89010798901785L173.60689309341436,275.85347731869047A180,180 0,0,0 233.78698671941555,377.4573953785197L262.84024003956165,343.09304653388983A135,135 0,0,1 217.70516982006077,266.89010798901785Z" style="pointer-events: all; stroke-width: 1; fill: rgb(0, 204, 150); fill-opacity: 1; stroke: rgb(255, 255, 255); stroke-opacity: 1; opacity: 0.7;"/><g class="slicetext"><text data-notex="1" class="slicetext" text-anchor="middle" x="0" y="0" style="font-family: 'Open Sans', verdana, arial, sans-serif; font-size: 12px; fill: rgb(68, 68, 68); fill-opacity: 1; white-space: pre;" transform="translate(209.69782196591993,322.71974579505354)rotate(59.361702127659555)">multi-step</text></g></g><g class="slice"><path class="surface" d="M262.84024003956165,343.09304653388983L233.78698671941555,377.4573953785197A180,180 0,0,0 331.9827755076624,419.09600671593074L336.4870816307468,374.3220050369481A135,135 0,0,1 262.84024003956165,343.09304653388983Z" style="pointer-events: all; stroke-width: 1; fill: rgb(239, 85, 59); fill-opacity: 1; stroke: rgb(255, 255, 255); stroke-opacity: 1; opacity: 0.7;"/><g class="slicetext"><text data-notex="1" class="slicetext" text-anchor="middle" x="0" y="0" style="font-family: 'Open Sans', verdana, arial, sans-serif; font-size: 12px; fill: rgb(68, 68, 68); fill-opacity: 1; white-space: pre;" transform="translate(285.3747857988845,392.86506937390715)rotate(22.978723404255334)">single-step</text></g></g><g class="slice"><path class="surface" d="M336.4870816307468,374.3220050369481L331.9827755076624,419.09600671593074A180,180 0,0,0 356.01469586138154,419.8994814714458L354.51102189603614,374.92461110358437A135,135 0,0,1 336.4870816307468,374.3220050369481Z" style="pointer-events: all; stroke-width: 1; fill: rgb(239, 85, 59); fill-opacity: 1; stroke: rgb(255, 255, 255); stroke-opacity: 1; opacity: 0.7;"/><g class="slicetext"><text data-notex="1" class="slicetext" text-anchor="middle" x="0" y="0" style="font-family: 'Open Sans', verdana, arial, sans-serif; font-size: 12px; fill: rgb(68, 68, 68); fill-opacity: 1; white-space: pre;" transform="translate(348.1314574920527,397.7123526731326)scale(0.756101242746566)rotate(-88.08510638297878)">multi-step</text></g></g><g class="slice"><path class="surface" d="M354.51102189603614,374.92461110358437L356.01469586138154,419.8994814714458A180,180 0,0,0 368.01722449233773,419.0960067159307L363.51291836925327,374.32200503694804A135,135 0,0,1 354.51102189603614,374.92461110358437Z" style="pointer-events: all; stroke-width: 1; fill: rgb(239, 85, 59); fill-opacity: 1; stroke: rgb(255, 255, 255); stroke-opacity: 1; opacity: 0.7;"/><g class="slicetext"><text data-notex="1" class="slicetext" text-anchor="middle" x="0" y="0" style="font-family: 'Open Sans', verdana, arial, sans-serif; font-size: 12px; fill: rgb(68, 68, 68); fill-opacity: 1; white-space: pre;" transform="translate(358.377094479661,402.194218027463)scale(0.5499981309738072)rotate(86.17021276595744)">single-step</text></g></g><g class="slice"><path class="surface" d="M363.51291836925327,374.32200503694804L368.01722449233773,419.0960067159307A180,180 0,0,0 526.3931069065856,275.85347731869064L482.2948301799392,266.89010798901796A135,135 0,0,1 363.51291836925327,374.32200503694804Z" style="pointer-events: all; stroke-width: 1; fill: rgb(99, 110, 250); fill-opacity: 1; stroke: rgb(255, 255, 255); stroke-opacity: 1; opacity: 0.7;"/><g class="slicetext"><text data-notex="1" class="slicetext" text-anchor="middle" x="0" y="0" style="font-family: 'Open Sans', verdana, arial, sans-serif; font-size: 12px; fill: rgb(255, 255, 255); fill-opacity: 1; white-space: pre;" transform="translate(455.2484916982197,356.09995649139535)rotate(-42.12765957446811)">single-step</text></g></g><g class="slice"><path class="surface" d="M482.2948301799392,266.89010798901796L526.3931069065856,275.85347731869064A180,180 0,0,0 530,240.0000000000002L485,240.00000000000014A135,135 0,0,1 482.2948301799392,266.89010798901796Z" style="pointer-events: all; stroke-width: 1; fill: rgb(99, 110, 250); fill-opacity: 1; stroke: rgb(255, 255, 255); stroke-opacity: 1; opacity: 0.7;"/><g class="slicetext"><text data-notex="1" class="slicetext" text-anchor="middle" x="0" y="0" style="font-family: 'Open Sans', verdana, arial, sans-serif; font-size: 12px; fill: rgb(255, 255, 255); fill-opacity: 1; white-space: pre;" transform="translate(506.0605152047535,259.1194622719305)scale(0.756101242746566)rotate(5.744680851063833)">multi-step</text></g></g></g></g><g class="glimages"/><defs id="topdefs-308aa7"><g class="clips"/></defs><g class="layer-above"><g class="imagelayer"/><g class="shapelayer"/></g><g class="infolayer"><g class="g-gtitle"/></g></svg>